<?xml version="1.0" encoding="utf-8"?>
<!-- Generator: Adobe Illustrator 23.0.2, SVG Export Plug-In . SVG Version: 6.00 Build 0)  -->
<svg version="1.1" id="_x31_" xmlns="http://www.w3.org/2000/svg" xmlns:xlink="http://www.w3.org/1999/xlink" x="0px" y="0px"
	 viewBox="0 0 512 512" style="enable-background:new 0 0 512 512;" xml:space="preserve">
<style type="text/css">
	.st0{fill:#F49138;}
	.st1{fill:#FF9F40;}
	.st2{fill:none;stroke:#000000;stroke-width:8;stroke-linecap:round;stroke-miterlimit:10;}
	.st3{fill:#65D1CB;}
	.st4{fill:#73E7E6;}
	.st5{fill:#DD5B5B;}
	.st6{fill:#F26666;}
</style>
<g>
	<g>
		<path class="st0" d="M435.2,451.6H306.6c-10.9,0-19.9-8.9-19.9-19.9v-132c0-10.9,8.9-19.9,19.9-19.9h128.6
			c10.9,0,19.9,8.9,19.9,19.9v132C455.1,442.7,446.3,451.6,435.2,451.6z"/>
		<path class="st1" d="M383.9,451.6h-80.3c-9.4,0-17-7.6-17-17V296.8c0-9.4,7.6-17,17-17h80.3c20,0,36.3,16.3,36.3,36.3v99.2
			C420.2,435.4,404,451.6,383.9,451.6z"/>
		<path class="st2" d="M286.8,351.2v-51.6c0-10.9,8.9-19.9,19.9-19.9h128.6c10.9,0,19.9,8.9,19.9,19.9v132
			c0,10.9-8.9,19.9-19.9,19.9H306.7c-10.9,0-19.9-8.9-19.9-19.9v-55.9"/>
		<g>
			<path d="M372.3,360.3c3.4,0,6.2-1,8.6-3c2.4-2,3.6-4.8,3.6-8.5c0-2.8-1-5.3-3-7.2c-2-2.1-4.6-3.1-7.9-3.1c-2.2,0-4.1,0.3-5.5,1
				c-1.4,0.7-2.6,1.4-3.4,2.5c-0.9,1-1.6,2.3-2.4,3.9c-0.8,1.6-1.4,3.2-2.1,4.6c-0.3,0.8-1,1.4-2,1.9c-1,0.4-2.1,0.7-3.3,0.7
				c-1.4,0-2.8-0.5-4.1-1.8c-1.2-1.2-1.9-2.7-1.9-4.7c0-1.9,0.5-3.9,1.8-6c1.2-2.1,2.8-4.1,5-6c2.2-1.9,4.9-3.4,8.2-4.6
				c3.3-1.2,7-1.8,11.1-1.8c3.5,0,6.8,0.4,9.7,1.4c3,1,5.5,2.4,7.7,4.2c2.2,1.9,3.8,3.9,4.9,6.4c1.1,2.4,1.6,5,1.6,7.8
				c0,3.6-0.8,6.8-2.4,9.4c-1.6,2.6-3.8,5.1-6.8,7.7c2.8,1.5,5.3,3.3,7.2,5.3c2,2,3.4,4.2,4.4,6.6c1,2.4,1.5,4.9,1.5,7.8
				c0,3.3-0.7,6.6-2,9.6c-1.3,3.1-3.3,5.9-5.9,8.3c-2.6,2.4-5.7,4.4-9.2,5.7c-3.5,1.3-7.6,2.1-11.8,2.1c-4.4,0-8.3-0.8-11.8-2.4
				c-3.5-1.5-6.4-3.5-8.5-5.9c-2.3-2.4-3.9-4.8-5.1-7.3c-1.2-2.5-1.8-4.6-1.8-6.2c0-2.1,0.7-3.8,2.1-5.1c1.4-1.3,3.1-2,5.1-2
				c1,0,2,0.3,3,0.9c1,0.7,1.5,1.3,1.9,2.2c1.9,5,3.9,8.9,6.1,11.3c2.2,2.5,5.3,3.7,9.2,3.7c2.3,0,4.5-0.5,6.6-1.6
				c2.1-1.1,3.8-2.7,5.3-4.9c1.4-2.2,2.1-4.7,2.1-7.7c0-4.3-1.2-7.7-3.5-10.1c-2.3-2.4-5.6-3.6-9.7-3.6c-0.8,0-1.9,0.1-3.4,0.2
				c-1.5,0.1-2.5,0.2-3,0.2c-2,0-3.6-0.5-4.7-1.5c-1.1-1-1.6-2.4-1.6-4.2c0-1.8,0.7-3.2,2-4.3c1.3-1.1,3.3-1.6,5.9-1.6L372.3,360.3
				L372.3,360.3z"/>
		</g>
	</g>
	<g>
		<path class="st3" d="M227.6,438.6l-127.2,19.8c-10.8,1.6-21-5.7-22.8-16.6L57.4,311.2c-1.6-10.8,5.7-21,16.6-22.8l127.2-19.8
			c10.8-1.6,21,5.7,22.8,16.6l20.3,130.5C245.9,426.6,238.5,436.8,227.6,438.6z"/>
		<path class="st4" d="M176.8,446.4l-79.3,12.4c-9.3,1.4-18-4.9-19.4-14.1L56.9,308.3c-1.4-9.3,4.9-18,14.1-19.4l79.4-12.4
			c19.8-3.1,38.4,10.5,41.5,30.3l15.2,98C210.3,424.8,196.8,443.4,176.8,446.4z"/>
		<path class="st2" d="M65.5,362.1l-7.9-50.9c-1.6-10.8,5.7-21,16.6-22.8l127.2-19.8c10.8-1.6,21,5.7,22.8,16.6l20.3,130.5
			c1.6,10.8-5.7,21-16.6,22.8l-127.3,19.7c-10.8,1.6-21-5.7-22.8-16.6l-8.6-55.3"/>
		<g>
			<path d="M151.1,394l28.2-4.4c2.8-0.4,5-0.2,6.7,0.8c1.6,1,2.6,2.4,3,4.4c0.3,1.8-0.1,3.4-1.1,4.8s-2.6,2.3-5,2.6l-39.9,6.2
				c-2.7,0.4-4.9,0-6.7-1.3c-1.8-1.3-2.7-3-3.1-4.9c-0.2-1.3,0-3.1,0.7-5.4c0.7-2.3,1.4-4.2,2.4-5.6c4.1-5.7,7.7-10.6,11.1-14.8
				c3.3-4.2,5.7-6.9,7.2-8.3c2.6-2.5,4.8-5,6.5-7.4c1.6-2.4,2.8-4.8,3.5-7.2c0.7-2.4,0.9-4.6,0.5-6.8c-0.3-2.3-1.2-4.3-2.6-5.9
				c-1.4-1.6-3.1-2.8-5.1-3.5c-2.1-0.8-4.2-0.9-6.5-0.5c-4.7,0.8-8.1,3.4-10.2,8c-0.3,0.5-0.7,2.2-1.1,4.7c-0.4,2.5-1.1,4.6-2,6
				s-2.3,2.4-4.4,2.6c-1.8,0.3-3.4-0.1-4.8-1.1c-1.4-1-2.2-2.5-2.5-4.6c-0.4-2.5-0.2-5.1,0.4-8.1c0.7-2.8,2-5.6,3.8-8.1
				c1.9-2.5,4.4-4.8,7.7-6.7c3.2-1.9,7.1-3.2,11.7-3.9c5.5-0.9,10.4-0.8,14.6,0.4c2.7,0.8,5.1,2,7.4,3.7c2.2,1.8,4.1,3.8,5.6,6.4
				c1.4,2.5,2.4,5.1,2.8,8c0.7,4.5,0.2,8.8-1.4,12.7c-1.6,4.1-3.5,7.2-5.5,9.6c-2,2.4-5.4,6.4-10.1,11.6c-4.7,5.3-7.9,9.3-9.5,12
				C152.5,391.2,151.9,392.5,151.1,394z"/>
		</g>
	</g>
	<g>
		<path class="st5" d="M279.4,256.4L156.3,219c-10.5-3.2-16.4-14.3-13.2-24.9l38.3-126.3c3.2-10.5,14.3-16.4,24.9-13.2l123.2,37.3
			c10.5,3.2,16.4,14.3,13.2,24.9l-38.3,126.3C301.1,253.6,289.9,259.6,279.4,256.4z"/>
		<path class="st6" d="M230.3,241.5l-76.9-23.3c-9-2.7-14-12.2-11.3-21.1l40-132c2.7-9,12.2-14,21.1-11.3L280.1,77
			c19.3,5.8,30.1,26.2,24.3,45.3l-28.8,94.9C269.8,236.5,249.5,247.3,230.3,241.5z"/>
		<path class="st2" d="M166.4,117.2l15-49.4c3.2-10.5,14.3-16.4,24.9-13.2l123.2,37.3c10.5,3.2,16.4,14.3,13.2,24.9l-38.3,126.3
			c-3.2,10.5-14.3,16.4-24.9,13.2L156.4,219c-10.5-3.2-16.4-14.3-13.2-24.9l16.2-53.5"/>
		<g>
			<path d="M234.6,190.3l14.5-47.7c-10.9,4.2-18,5.7-21,4.8c-1.4-0.4-2.6-1.4-3.4-3c-0.8-1.5-1-3.1-0.4-4.6c0.5-1.8,1.5-3,2.8-3.4
				c1.4-0.5,3.7-1,6.9-1.4c4.8-0.7,8.9-1.8,12-3.2c3.2-1.4,6.2-3.2,9-5.4c2.7-2.1,4.6-3.4,5.4-3.8c0.8-0.4,2-0.4,3.6,0.1
				c1.9,0.5,3.2,1.8,3.8,3.5c0.7,1.8,0.7,3.9-0.1,6.5l-18.2,60.1c-2.1,7-5.6,9.9-10.4,8.3c-2.1-0.7-3.6-1.9-4.5-3.7
				C233.8,195.4,233.8,193,234.6,190.3z"/>
		</g>
	</g>
</g>
</svg>
